<?xml version="1.0" encoding="UTF-8"?>
<svg xmlns="http://www.w3.org/2000/svg" version="1.1" viewBox="0 0 163 160">
  <defs>
    <style>
      .cls-1, .cls-2 {
        stroke: #000;
        stroke-opacity: .2;
      }

      .cls-1, .cls-2, .cls-3, .cls-4 {
        fill: none;
      }

      .cls-1, .cls-3 {
        stroke-width: 3px;
      }

      .cls-1, .cls-3, .cls-5 {
        stroke-miterlimit: 10;
      }

      .cls-6 {
        fill: #000;
        fill-opacity: .2;
      }

      .cls-6, .cls-7, .cls-8 {
        stroke-width: 0px;
      }

      .cls-3, .cls-4 {
        stroke: #3a475b;
      }

      .cls-7 {
        fill: #3a475b;
      }

      .cls-8, .cls-5 {
        fill: #fff;
      }

      .cls-5 {
        stroke: #fff;
      }
    </style>
  </defs>
  <g id="Layer_1" data-name="Layer 1">
    <path class="cls-7" d="M19.6,89.7h0s0,0,0,0l-.2-.5q.2.5.2.5h0s0,0,0,0h0s0,0,.1,0c.1,0,.3,0,.5-.2.4-.1,1.1-.3,2-.6,1.7-.5,4.3-1.1,7.6-1.9,6.6-1.5,15.9-3.3,27.3-4.5,22.7-2.4,53.3-2.6,84.6,6.6h0s0,0,0,0c.7.1,1.3.3,1.9.5.4.1.7.2,1.1.3h0s0,0,0,0c0,0,.2,0,.3.1.3.1.7.3,1.1.5,1,.5,2.3,1.3,3.6,2.4,2.6,2.2,5.5,5.6,6.5,10.9l-150.3,1.1c0-.4.2-.9.3-1.5.3-1.3.9-3,1.8-4.8,1.9-3.6,5.2-7.6,11.2-9.2Z"/>
    <path class="cls-6" d="M19.6,89.7h0s0,0,0,0l-.2-.5q.2.5.2.5h0s0,0,0,0h0s0,0,.1,0c.1,0,.3,0,.5-.2.4-.1,1.1-.3,2-.6,1.7-.5,4.3-1.1,7.6-1.9,6.6-1.5,15.9-3.3,27.3-4.5,22.7-2.4,53.3-2.6,84.6,6.6h0s0,0,0,0c.7.1,1.3.3,1.9.5.4.1.7.2,1.1.3h0s0,0,0,0c0,0,.2,0,.3.1.3.1.7.3,1.1.5,1,.5,2.3,1.3,3.6,2.4,2.6,2.2,5.5,5.6,6.5,10.9l-150.3,1.1c0-.4.2-.9.3-1.5.3-1.3.9-3,1.8-4.8,1.9-3.6,5.2-7.6,11.2-9.2Z"/>
    <path class="cls-4" d="M19.6,89.7h0s0,0,0,0l-.2-.5q.2.5.2.5h0s0,0,0,0h0s0,0,.1,0c.1,0,.3,0,.5-.2.4-.1,1.1-.3,2-.6,1.7-.5,4.3-1.1,7.6-1.9,6.6-1.5,15.9-3.3,27.3-4.5,22.7-2.4,53.3-2.6,84.6,6.6h0s0,0,0,0c.7.1,1.3.3,1.9.5.4.1.7.2,1.1.3h0s0,0,0,0c0,0,.2,0,.3.1.3.1.7.3,1.1.5,1,.5,2.3,1.3,3.6,2.4,2.6,2.2,5.5,5.6,6.5,10.9l-150.3,1.1c0-.4.2-.9.3-1.5.3-1.3.9-3,1.8-4.8,1.9-3.6,5.2-7.6,11.2-9.2Z"/>
    <path class="cls-2" d="M19.6,89.7h0s0,0,0,0l-.2-.5q.2.5.2.5h0s0,0,0,0h0s0,0,.1,0c.1,0,.3,0,.5-.2.4-.1,1.1-.3,2-.6,1.7-.5,4.3-1.1,7.6-1.9,6.6-1.5,15.9-3.3,27.3-4.5,22.7-2.4,53.3-2.6,84.6,6.6h0s0,0,0,0c.7.1,1.3.3,1.9.5.4.1.7.2,1.1.3h0s0,0,0,0c0,0,.2,0,.3.1.3.1.7.3,1.1.5,1,.5,2.3,1.3,3.6,2.4,2.6,2.2,5.5,5.6,6.5,10.9l-150.3,1.1c0-.4.2-.9.3-1.5.3-1.3.9-3,1.8-4.8,1.9-3.6,5.2-7.6,11.2-9.2Z"/>
    <path class="cls-7" d="M84.9,3.8l.2.2h.3c2.4-1.2,4.7-1.7,6.6-1.4,1.8.2,3.2,1.1,4,2.7h0c1.5,3,3.3,5.1,6.3,6.8,1.6,1,2.4,2.4,2.3,4,0,1.6-.9,3.6-2.5,5.6l-.2.2v.3c.2.3.3.5.4.8.2.5.5,1.2.8,2-1-.2-1.9-.3-2.7-.5-.5,0-.9-.2-1.4-.2-1.5-.3-2.9-.6-4.2-1h0c-7.7-2.8-15.4-2.9-23.2-.3-2.3.7-4.6,1.4-7,2-.6.2-1.3.3-1.9.5,0,0-.2-.2-.3-.2h0c0,0-.1-.1-.2-.2.3-.7.5-1.4.8-2.1.5-1.3,1-2.7,1.6-4.3v-.2c0,0,0-.2,0-.2-1.4-2.4-1.5-4.8-.5-6.6,1-1.9,3.1-3.3,6.3-3.7h0s0,0,0,0c.3,0,.7-.2,1-.4.3-.2.6-.4.8-.7h0s0,0,0,0c2-3.2,3.8-4.8,5.7-5.2,1.9-.4,4.2.3,7.2,2.3Z"/>
    <path class="cls-6" d="M84.9,3.8l.2.2h.3c2.4-1.2,4.7-1.7,6.6-1.4,1.8.2,3.2,1.1,4,2.7h0c1.5,3,3.3,5.1,6.3,6.8,1.6,1,2.4,2.4,2.3,4,0,1.6-.9,3.6-2.5,5.6l-.2.2v.3c.2.3.3.5.4.8.2.5.5,1.2.8,2-1-.2-1.9-.3-2.7-.5-.5,0-.9-.2-1.4-.2-1.5-.3-2.9-.6-4.2-1h0c-7.7-2.8-15.4-2.9-23.2-.3-2.3.7-4.6,1.4-7,2-.6.2-1.3.3-1.9.5,0,0-.2-.2-.3-.2h0c0,0-.1-.1-.2-.2.3-.7.5-1.4.8-2.1.5-1.3,1-2.7,1.6-4.3v-.2c0,0,0-.2,0-.2-1.4-2.4-1.5-4.8-.5-6.6,1-1.9,3.1-3.3,6.3-3.7h0s0,0,0,0c.3,0,.7-.2,1-.4.3-.2.6-.4.8-.7h0s0,0,0,0c2-3.2,3.8-4.8,5.7-5.2,1.9-.4,4.2.3,7.2,2.3Z"/>
    <path class="cls-4" d="M84.9,3.8l.2.2h.3c2.4-1.2,4.7-1.7,6.6-1.4,1.8.2,3.2,1.1,4,2.7h0c1.5,3,3.3,5.1,6.3,6.8,1.6,1,2.4,2.4,2.3,4,0,1.6-.9,3.6-2.5,5.6l-.2.2v.3c.2.3.3.5.4.8.2.5.5,1.2.8,2-1-.2-1.9-.3-2.7-.5-.5,0-.9-.2-1.4-.2-1.5-.3-2.9-.6-4.2-1h0c-7.7-2.8-15.4-2.9-23.2-.3-2.3.7-4.6,1.4-7,2-.6.2-1.3.3-1.9.5,0,0-.2-.2-.3-.2h0c0,0-.1-.1-.2-.2.3-.7.5-1.4.8-2.1.5-1.3,1-2.7,1.6-4.3v-.2c0,0,0-.2,0-.2-1.4-2.4-1.5-4.8-.5-6.6,1-1.9,3.1-3.3,6.3-3.7h0s0,0,0,0c.3,0,.7-.2,1-.4.3-.2.6-.4.8-.7h0s0,0,0,0c2-3.2,3.8-4.8,5.7-5.2,1.9-.4,4.2.3,7.2,2.3Z"/>
    <path class="cls-2" d="M84.9,3.8l.2.2h.3c2.4-1.2,4.7-1.7,6.6-1.4,1.8.2,3.2,1.1,4,2.7h0c1.5,3,3.3,5.1,6.3,6.8,1.6,1,2.4,2.4,2.3,4,0,1.6-.9,3.6-2.5,5.6l-.2.2v.3c.2.3.3.5.4.8.2.5.5,1.2.8,2-1-.2-1.9-.3-2.7-.5-.5,0-.9-.2-1.4-.2-1.5-.3-2.9-.6-4.2-1h0c-7.7-2.8-15.4-2.9-23.2-.3-2.3.7-4.6,1.4-7,2-.6.2-1.3.3-1.9.5,0,0-.2-.2-.3-.2h0c0,0-.1-.1-.2-.2.3-.7.5-1.4.8-2.1.5-1.3,1-2.7,1.6-4.3v-.2c0,0,0-.2,0-.2-1.4-2.4-1.5-4.8-.5-6.6,1-1.9,3.1-3.3,6.3-3.7h0s0,0,0,0c.3,0,.7-.2,1-.4.3-.2.6-.4.8-.7h0s0,0,0,0c2-3.2,3.8-4.8,5.7-5.2,1.9-.4,4.2.3,7.2,2.3Z"/>
    <path class="cls-7" d="M139.1,97h0c3.8,1,6.2,2.3,7.6,4.3,1.5,2,2.1,4.7,2.1,8.7,0,1.8,0,3.6,0,5.3,0,3.6,0,7.2,0,10.8,0,5.8-2.3,10.5-6.5,14.4-7,6.2-15.4,9.2-24.7,9.8h0c-3.9.3-7.9,0-11.8-.3h0c-7-.6-12.2-4.4-15.7-10.5-.6-1.1-1.3-2.2-1.9-3.4-.9-1.6-1.8-3.3-2.8-4.9h0c-1.1-1.7-2.4-2.8-3.8-2.8-1.4,0-2.7,1-3.9,2.7-1.1,1.7-2.1,3.4-3,5.2-.5.9-1,1.9-1.5,2.8-3.7,6.3-8.9,10.2-16.2,10.8h0c-11.4,1.1-22.2,0-32.1-6.4-7.2-4.6-11.3-10.9-10.8-19.7h0c.2-3.1.1-6.3.1-9.4,0-1.9,0-3.9,0-5.8h0c0-3.2.7-5.6,2.1-7.4,1.4-1.8,3.5-3.1,6.7-4,19.1-5.5,38.7-8.2,58.5-8.1h0c19.6,0,38.8,2.6,57.7,7.9ZM81.6,94.9h0s0,0,0,0c-17.6.1-35.1,2.2-52.1,6.6h0c-2.4.6-4.3,1.1-5.7,1.7-1.4.5-2.4,1.2-3.1,2.1-.7.9-.9,2.1-1,3.6,0,1.5,0,3.5.3,6h0c0,.5.2,1,.4,1.4.2.4.6.9,1,1.1h0s0,0,0,0c.3.2.6.1.7,0,.2,0,.5-.1.7-.2.4-.2.9-.5,1.2-.9.6-.6,1.2-1.2,1.8-1.8,2.5-2.4,5-4.8,7.3-7.4h0c1-1.2,1.9-1.7,2.6-1.7.7,0,1.4.4,2.4,1.6,1.1,1.5,2.4,2.4,3.8,2.6,1.4.2,2.9-.4,4.4-1.5h0c2.9-2.1,6-3,9.5-1.6.8.3,1.8.3,2.8.1,1-.2,1.9-.6,2.6-1.1,1.5-1.1,2.8-1.6,4-1.6,1.3,0,2.6.5,4.3,1.5,5.7,3.5,11.7,6.6,18,9.1,4.5,1.8,9.7,2.5,14.5-.4h0c1.4-.9,2.8-1.2,4.1-1.2,1.4,0,2.8.5,4.3,1.2h0c2.5,1.1,5.8,1.8,8.4,1.1,2.2-.6,4-.8,5.7-.4,1.7.4,3.2,1.2,4.7,2.7.5.5,1,.9,1.5,1.3,0,0,.2.1.3.2.4.3.8.6,1.2.9,2.9,2.5,6.5,3,9,.7,1-.9,1.4-2,1.5-3,0-.5,0-1,0-1.5,0,0,0-.1,0-.2,0-.4,0-.8,0-1.1h0c0-1,0-1.9,0-2.9h0c0-1,0-1.9,0-2.8h0c.1-1.8-.2-3.2-1.1-4.3-.9-1.1-2.2-1.8-3.9-2.3h0s0,0,0,0c-18.5-5.1-37.4-7.6-56.5-7.8Z"/>
    <path class="cls-6" d="M139.1,97h0c3.8,1,6.2,2.3,7.6,4.3,1.5,2,2.1,4.7,2.1,8.7,0,1.8,0,3.6,0,5.3,0,3.6,0,7.2,0,10.8,0,5.8-2.3,10.5-6.5,14.4-7,6.2-15.4,9.2-24.7,9.8h0c-3.9.3-7.9,0-11.8-.3h0c-7-.6-12.2-4.4-15.7-10.5-.6-1.1-1.3-2.2-1.9-3.4-.9-1.6-1.8-3.3-2.8-4.9h0c-1.1-1.7-2.4-2.8-3.8-2.8-1.4,0-2.7,1-3.9,2.7-1.1,1.7-2.1,3.4-3,5.2-.5.9-1,1.9-1.5,2.8-3.7,6.3-8.9,10.2-16.2,10.8h0c-11.4,1.1-22.2,0-32.1-6.4-7.2-4.6-11.3-10.9-10.8-19.7h0c.2-3.1.1-6.3.1-9.4,0-1.9,0-3.9,0-5.8h0c0-3.2.7-5.6,2.1-7.4,1.4-1.8,3.5-3.1,6.7-4,19.1-5.5,38.7-8.2,58.5-8.1h0c19.6,0,38.8,2.6,57.7,7.9ZM81.6,94.9h0s0,0,0,0c-17.6.1-35.1,2.2-52.1,6.6h0c-2.4.6-4.3,1.1-5.7,1.7-1.4.5-2.4,1.2-3.1,2.1-.7.9-.9,2.1-1,3.6,0,1.5,0,3.5.3,6h0c0,.5.2,1,.4,1.4.2.4.6.9,1,1.1h0s0,0,0,0c.3.2.6.1.7,0,.2,0,.5-.1.7-.2.4-.2.9-.5,1.2-.9.6-.6,1.2-1.2,1.8-1.8,2.5-2.4,5-4.8,7.3-7.4h0c1-1.2,1.9-1.7,2.6-1.7.7,0,1.4.4,2.4,1.6,1.1,1.5,2.4,2.4,3.8,2.6,1.4.2,2.9-.4,4.4-1.5h0c2.9-2.1,6-3,9.5-1.6.8.3,1.8.3,2.8.1,1-.2,1.9-.6,2.6-1.1,1.5-1.1,2.8-1.6,4-1.6,1.3,0,2.6.5,4.3,1.5,5.7,3.5,11.7,6.6,18,9.1,4.5,1.8,9.7,2.5,14.5-.4h0c1.4-.9,2.8-1.2,4.1-1.2,1.4,0,2.8.5,4.3,1.2h0c2.5,1.1,5.8,1.8,8.4,1.1,2.2-.6,4-.8,5.7-.4,1.7.4,3.2,1.2,4.7,2.7.5.5,1,.9,1.5,1.3,0,0,.2.1.3.2.4.3.8.6,1.2.9,2.9,2.5,6.5,3,9,.7,1-.9,1.4-2,1.5-3,0-.5,0-1,0-1.5,0,0,0-.1,0-.2,0-.4,0-.8,0-1.1h0c0-1,0-1.9,0-2.9h0c0-1,0-1.9,0-2.8h0c.1-1.8-.2-3.2-1.1-4.3-.9-1.1-2.2-1.8-3.9-2.3h0s0,0,0,0c-18.5-5.1-37.4-7.6-56.5-7.8Z"/>
    <path class="cls-4" d="M139.1,97h0c3.8,1,6.2,2.3,7.6,4.3,1.5,2,2.1,4.7,2.1,8.7,0,1.8,0,3.6,0,5.3,0,3.6,0,7.2,0,10.8,0,5.8-2.3,10.5-6.5,14.4-7,6.2-15.4,9.2-24.7,9.8h0c-3.9.3-7.9,0-11.8-.3h0c-7-.6-12.2-4.4-15.7-10.5-.6-1.1-1.3-2.2-1.9-3.4-.9-1.6-1.8-3.3-2.8-4.9h0c-1.1-1.7-2.4-2.8-3.8-2.8-1.4,0-2.7,1-3.9,2.7-1.1,1.7-2.1,3.4-3,5.2-.5.9-1,1.9-1.5,2.8-3.7,6.3-8.9,10.2-16.2,10.8h0c-11.4,1.1-22.2,0-32.1-6.4-7.2-4.6-11.3-10.9-10.8-19.7h0c.2-3.1.1-6.3.1-9.4,0-1.9,0-3.9,0-5.8h0c0-3.2.7-5.6,2.1-7.4,1.4-1.8,3.5-3.1,6.7-4,19.1-5.5,38.7-8.2,58.5-8.1h0c19.6,0,38.8,2.6,57.7,7.9ZM81.6,94.9h0s0,0,0,0c-17.6.1-35.1,2.2-52.1,6.6h0c-2.4.6-4.3,1.1-5.7,1.7-1.4.5-2.4,1.2-3.1,2.1-.7.9-.9,2.1-1,3.6,0,1.5,0,3.5.3,6h0c0,.5.2,1,.4,1.4.2.4.6.9,1,1.1h0s0,0,0,0c.3.2.6.1.7,0,.2,0,.5-.1.7-.2.4-.2.9-.5,1.2-.9.6-.6,1.2-1.2,1.8-1.8,2.5-2.4,5-4.8,7.3-7.4h0c1-1.2,1.9-1.7,2.6-1.7.7,0,1.4.4,2.4,1.6,1.1,1.5,2.4,2.4,3.8,2.6,1.4.2,2.9-.4,4.4-1.5h0c2.9-2.1,6-3,9.5-1.6.8.3,1.8.3,2.8.1,1-.2,1.9-.6,2.6-1.1,1.5-1.1,2.8-1.6,4-1.6,1.3,0,2.6.5,4.3,1.5,5.7,3.5,11.7,6.6,18,9.1,4.5,1.8,9.7,2.5,14.5-.4h0c1.4-.9,2.8-1.2,4.1-1.2,1.4,0,2.8.5,4.3,1.2h0c2.5,1.1,5.8,1.8,8.4,1.1,2.2-.6,4-.8,5.7-.4,1.7.4,3.2,1.2,4.7,2.7.5.5,1,.9,1.5,1.3,0,0,.2.1.3.2.4.3.8.6,1.2.9,2.9,2.5,6.5,3,9,.7,1-.9,1.4-2,1.5-3,0-.5,0-1,0-1.5,0,0,0-.1,0-.2,0-.4,0-.8,0-1.1h0c0-1,0-1.9,0-2.9h0c0-1,0-1.9,0-2.8h0c.1-1.8-.2-3.2-1.1-4.3-.9-1.1-2.2-1.8-3.9-2.3h0s0,0,0,0c-18.5-5.1-37.4-7.6-56.5-7.8Z"/>
    <path class="cls-2" d="M139.1,97h0c3.8,1,6.2,2.3,7.6,4.3,1.5,2,2.1,4.7,2.1,8.7,0,1.8,0,3.6,0,5.3,0,3.6,0,7.2,0,10.8,0,5.8-2.3,10.5-6.5,14.4-7,6.2-15.4,9.2-24.7,9.8h0c-3.9.3-7.9,0-11.8-.3h0c-7-.6-12.2-4.4-15.7-10.5-.6-1.1-1.3-2.2-1.9-3.4-.9-1.6-1.8-3.3-2.8-4.9h0c-1.1-1.7-2.4-2.8-3.8-2.8-1.4,0-2.7,1-3.9,2.7-1.1,1.7-2.1,3.4-3,5.2-.5.9-1,1.9-1.5,2.8-3.7,6.3-8.9,10.2-16.2,10.8h0c-11.4,1.1-22.2,0-32.1-6.4-7.2-4.6-11.3-10.9-10.8-19.7h0c.2-3.1.1-6.3.1-9.4,0-1.9,0-3.9,0-5.8h0c0-3.2.7-5.6,2.1-7.4,1.4-1.8,3.5-3.1,6.7-4,19.1-5.5,38.7-8.2,58.5-8.1h0c19.6,0,38.8,2.6,57.7,7.9ZM81.6,94.9h0s0,0,0,0c-17.6.1-35.1,2.2-52.1,6.6h0c-2.4.6-4.3,1.1-5.7,1.7-1.4.5-2.4,1.2-3.1,2.1-.7.9-.9,2.1-1,3.6,0,1.5,0,3.5.3,6h0c0,.5.2,1,.4,1.4.2.4.6.9,1,1.1h0s0,0,0,0c.3.2.6.1.7,0,.2,0,.5-.1.7-.2.4-.2.9-.5,1.2-.9.6-.6,1.2-1.2,1.8-1.8,2.5-2.4,5-4.8,7.3-7.4h0c1-1.2,1.9-1.7,2.6-1.7.7,0,1.4.4,2.4,1.6,1.1,1.5,2.4,2.4,3.8,2.6,1.4.2,2.9-.4,4.4-1.5h0c2.9-2.1,6-3,9.5-1.6.8.3,1.8.3,2.8.1,1-.2,1.9-.6,2.6-1.1,1.5-1.1,2.8-1.6,4-1.6,1.3,0,2.6.5,4.3,1.5,5.7,3.5,11.7,6.6,18,9.1,4.5,1.8,9.7,2.5,14.5-.4h0c1.4-.9,2.8-1.2,4.1-1.2,1.4,0,2.8.5,4.3,1.2h0c2.5,1.1,5.8,1.8,8.4,1.1,2.2-.6,4-.8,5.7-.4,1.7.4,3.2,1.2,4.7,2.7.5.5,1,.9,1.5,1.3,0,0,.2.1.3.2.4.3.8.6,1.2.9,2.9,2.5,6.5,3,9,.7,1-.9,1.4-2,1.5-3,0-.5,0-1,0-1.5,0,0,0-.1,0-.2,0-.4,0-.8,0-1.1h0c0-1,0-1.9,0-2.9h0c0-1,0-1.9,0-2.8h0c.1-1.8-.2-3.2-1.1-4.3-.9-1.1-2.2-1.8-3.9-2.3h0s0,0,0,0c-18.5-5.1-37.4-7.6-56.5-7.8Z"/>
    <path class="cls-7" d="M20.5,91.4h0s.4-12.6.4-12.6c0-1.1.6-2,1.4-2.4h0c9.6-4.8,60.5-27.8,119.3.4h0c.9.4,1.5,1.3,1.5,2.5h0s.1,9.4.1,9.4h0c0,1.5-1.1,2.7-2.3,2.8,0,0,0,0,0,0l-117.9,2.7c-1.3,0-2.5-1.3-2.4-2.9Z"/>
    <path class="cls-6" d="M20.5,91.4h0s.4-12.6.4-12.6c0-1.1.6-2,1.4-2.4h0c9.6-4.8,60.5-27.8,119.3.4h0c.9.4,1.5,1.3,1.5,2.5h0s.1,9.4.1,9.4h0c0,1.5-1.1,2.7-2.3,2.8,0,0,0,0,0,0l-117.9,2.7c-1.3,0-2.5-1.3-2.4-2.9Z"/>
    <path class="cls-4" d="M20.5,91.4h0s.4-12.6.4-12.6c0-1.1.6-2,1.4-2.4h0c9.6-4.8,60.5-27.8,119.3.4h0c.9.4,1.5,1.3,1.5,2.5h0s.1,9.4.1,9.4h0c0,1.5-1.1,2.7-2.3,2.8,0,0,0,0,0,0l-117.9,2.7c-1.3,0-2.5-1.3-2.4-2.9Z"/>
    <path class="cls-2" d="M20.5,91.4h0s.4-12.6.4-12.6c0-1.1.6-2,1.4-2.4h0c9.6-4.8,60.5-27.8,119.3.4h0c.9.4,1.5,1.3,1.5,2.5h0s.1,9.4.1,9.4h0c0,1.5-1.1,2.7-2.3,2.8,0,0,0,0,0,0l-117.9,2.7c-1.3,0-2.5-1.3-2.4-2.9Z"/>
    <path class="cls-7" d="M81.2,130.7c-1.3-.2-2.7.7-3.9,2.7-1.8,2.9-3.2,5.9-4.8,8.9-3.9,7.2-9.6,11.6-17.5,12.4-12.1,1.3-23.6,0-34.1-7.3-7.7-5.3-11.2-11.8-10.6-22.2.4-5.7-1-11.7-.9-17.4,0-2.7.4-4.9,1.3-6.7-2.5,2.6-3.7,6.2-3.7,10.8,0,6.1,0,12.2,0,18.3,0,6,2.1,11.2,6.4,15.3,2.7,2.5,5.7,4.9,9,6.7,9.1,5.3,19.1,6.3,29.6,6.1,11-.3,19.9-4.3,25.7-13.4,1.5-2.4,2.6-3.7,3.6-3.7v-10.3s-.1,0-.1,0Z"/>
    <path class="cls-6" d="M81.2,130.7c-1.3-.2-2.7.7-3.9,2.7-1.8,2.9-3.2,5.9-4.8,8.9-3.9,7.2-9.6,11.6-17.5,12.4-12.1,1.3-23.6,0-34.1-7.3-7.7-5.3-11.2-11.8-10.6-22.2.4-5.7-1-11.7-.9-17.4,0-2.7.4-4.9,1.3-6.7-2.5,2.6-3.7,6.2-3.7,10.8,0,6.1,0,12.2,0,18.3,0,6,2.1,11.2,6.4,15.3,2.7,2.5,5.7,4.9,9,6.7,9.1,5.3,19.1,6.3,29.6,6.1,11-.3,19.9-4.3,25.7-13.4,1.5-2.4,2.6-3.7,3.6-3.7v-10.3s-.1,0-.1,0Z"/>
    <path class="cls-3" d="M81.2,130.7c-1.3-.2-2.7.7-3.9,2.7-1.8,2.9-3.2,5.9-4.8,8.9-3.9,7.2-9.6,11.6-17.5,12.4-12.1,1.3-23.6,0-34.1-7.3-7.7-5.3-11.2-11.8-10.6-22.2.4-5.7-1-11.7-.9-17.4,0-2.7.4-4.9,1.3-6.7-2.5,2.6-3.7,6.2-3.7,10.8,0,6.1,0,12.2,0,18.3,0,6,2.1,11.2,6.4,15.3,2.7,2.5,5.7,4.9,9,6.7,9.1,5.3,19.1,6.3,29.6,6.1,11-.3,19.9-4.3,25.7-13.4,1.5-2.4,2.6-3.7,3.6-3.7v-10.3s-.1,0-.1,0Z"/>
    <path class="cls-1" d="M81.2,130.7c-1.3-.2-2.7.7-3.9,2.7-1.8,2.9-3.2,5.9-4.8,8.9-3.9,7.2-9.6,11.6-17.5,12.4-12.1,1.3-23.6,0-34.1-7.3-7.7-5.3-11.2-11.8-10.6-22.2.4-5.7-1-11.7-.9-17.4,0-2.7.4-4.9,1.3-6.7-2.5,2.6-3.7,6.2-3.7,10.8,0,6.1,0,12.2,0,18.3,0,6,2.1,11.2,6.4,15.3,2.7,2.5,5.7,4.9,9,6.7,9.1,5.3,19.1,6.3,29.6,6.1,11-.3,19.9-4.3,25.7-13.4,1.5-2.4,2.6-3.7,3.6-3.7v-10.3s-.1,0-.1,0Z"/>
    <path class="cls-7" d="M81.2,88.1v-2.7c-.1,0-.3,0-.3,0-21,0-41.6,3-61.9,9.2-4.3,1.3-6.9,3.4-8.3,6.6,1.9-2,4.6-3.5,8.1-4.5,20.5-5.7,41.3-8.5,62.5-8.5Z"/>
    <path class="cls-6" d="M81.2,88.1v-2.7c-.1,0-.3,0-.3,0-21,0-41.6,3-61.9,9.2-4.3,1.3-6.9,3.4-8.3,6.6,1.9-2,4.6-3.5,8.1-4.5,20.5-5.7,41.3-8.5,62.5-8.5Z"/>
    <path class="cls-3" d="M81.2,88.1v-2.7c-.1,0-.3,0-.3,0-21,0-41.6,3-61.9,9.2-4.3,1.3-6.9,3.4-8.3,6.6,1.9-2,4.6-3.5,8.1-4.5,20.5-5.7,41.3-8.5,62.5-8.5Z"/>
    <path class="cls-1" d="M81.2,88.1v-2.7c-.1,0-.3,0-.3,0-21,0-41.6,3-61.9,9.2-4.3,1.3-6.9,3.4-8.3,6.6,1.9-2,4.6-3.5,8.1-4.5,20.5-5.7,41.3-8.5,62.5-8.5Z"/>
    <path class="cls-7" d="M81.2,130.7c1.3-.2,2.7.7,3.9,2.7,1.7,2.9,3.1,5.9,4.8,8.9,3.9,7.2,9.6,11.6,17.4,12.5,12.1,1.3,23.6,0,34.1-7.2,7.7-5.3,11.2-11.8,10.6-22.2-.3-5.7,1-11.7.9-17.4,0-2.7-.4-4.9-1.3-6.7,2.5,2.6,3.7,6.2,3.7,10.8,0,6.1,0,12.2,0,18.3,0,6-2.1,11.2-6.5,15.2-2.7,2.5-5.8,4.8-9,6.7-9.1,5.3-19.1,6.3-29.6,6-11-.3-19.9-4.4-25.7-13.4-1.5-2.4-2.6-3.7-3.6-3.7v-10.3h.1Z"/>
    <path class="cls-6" d="M81.2,130.7c1.3-.2,2.7.7,3.9,2.7,1.7,2.9,3.1,5.9,4.8,8.9,3.9,7.2,9.6,11.6,17.4,12.5,12.1,1.3,23.6,0,34.1-7.2,7.7-5.3,11.2-11.8,10.6-22.2-.3-5.7,1-11.7.9-17.4,0-2.7-.4-4.9-1.3-6.7,2.5,2.6,3.7,6.2,3.7,10.8,0,6.1,0,12.2,0,18.3,0,6-2.1,11.2-6.5,15.2-2.7,2.5-5.8,4.8-9,6.7-9.1,5.3-19.1,6.3-29.6,6-11-.3-19.9-4.4-25.7-13.4-1.5-2.4-2.6-3.7-3.6-3.7v-10.3h.1Z"/>
    <path class="cls-3" d="M81.2,130.7c1.3-.2,2.7.7,3.9,2.7,1.7,2.9,3.1,5.9,4.8,8.9,3.9,7.2,9.6,11.6,17.4,12.5,12.1,1.3,23.6,0,34.1-7.2,7.7-5.3,11.2-11.8,10.6-22.2-.3-5.7,1-11.7.9-17.4,0-2.7-.4-4.9-1.3-6.7,2.5,2.6,3.7,6.2,3.7,10.8,0,6.1,0,12.2,0,18.3,0,6-2.1,11.2-6.5,15.2-2.7,2.5-5.8,4.8-9,6.7-9.1,5.3-19.1,6.3-29.6,6-11-.3-19.9-4.4-25.7-13.4-1.5-2.4-2.6-3.7-3.6-3.7v-10.3h.1Z"/>
    <path class="cls-1" d="M81.2,130.7c1.3-.2,2.7.7,3.9,2.7,1.7,2.9,3.1,5.9,4.8,8.9,3.9,7.2,9.6,11.6,17.4,12.5,12.1,1.3,23.6,0,34.1-7.2,7.7-5.3,11.2-11.8,10.6-22.2-.3-5.7,1-11.7.9-17.4,0-2.7-.4-4.9-1.3-6.7,2.5,2.6,3.7,6.2,3.7,10.8,0,6.1,0,12.2,0,18.3,0,6-2.1,11.2-6.5,15.2-2.7,2.5-5.8,4.8-9,6.7-9.1,5.3-19.1,6.3-29.6,6-11-.3-19.9-4.4-25.7-13.4-1.5-2.4-2.6-3.7-3.6-3.7v-10.3h.1Z"/>
    <path class="cls-7" d="M81.2,88.1v-2.7c.1,0,.3,0,.4,0,21,0,41.6,3.1,61.9,9.3,4.3,1.3,6.9,3.4,8.3,6.6-1.9-2-4.6-3.5-8.1-4.5-20.5-5.7-41.3-8.5-62.5-8.6Z"/>
    <path class="cls-6" d="M81.2,88.1v-2.7c.1,0,.3,0,.4,0,21,0,41.6,3.1,61.9,9.3,4.3,1.3,6.9,3.4,8.3,6.6-1.9-2-4.6-3.5-8.1-4.5-20.5-5.7-41.3-8.5-62.5-8.6Z"/>
    <path class="cls-3" d="M81.2,88.1v-2.7c.1,0,.3,0,.4,0,21,0,41.6,3.1,61.9,9.3,4.3,1.3,6.9,3.4,8.3,6.6-1.9-2-4.6-3.5-8.1-4.5-20.5-5.7-41.3-8.5-62.5-8.6Z"/>
    <path class="cls-1" d="M81.2,88.1v-2.7c.1,0,.3,0,.4,0,21,0,41.6,3.1,61.9,9.3,4.3,1.3,6.9,3.4,8.3,6.6-1.9-2-4.6-3.5-8.1-4.5-20.5-5.7-41.3-8.5-62.5-8.6Z"/>
    <path class="cls-8" d="M142.5,116.5h0c0,.4,0,.9,0,1.4,0,0,0,.1,0,.2,0,.5,0,1.1,0,1.6-.1,1-.4,2-1,2.7-.9,1-2.2,1.4-3.6,1.3-1.4-.2-3-.9-4.3-2.2h0c-.4-.4-.8-.7-1.2-1.1,0,0-.2-.2-.3-.2-.5-.4-1-.8-1.4-1.3-1.6-1.8-3.4-2.9-5.3-3.3-1.9-.4-4-.2-6.2.5-1.1.4-2.6.4-4,.3-1.4-.2-2.8-.6-3.6-1.3-1.5-1.2-3.1-1.7-4.7-1.6-1.6,0-3.3.7-4.8,1.7h0c-2.2,1.5-5.2,2.2-8,2.5-2.7.3-5.1.2-6,.1-3.4-.5-5.9-.9-8.4-2.5-2.5-1.6-5.2-4.3-9.1-9.5h0s0,0,0,0c-1.3-1.4-2.8-2.1-4.5-2-1.7,0-3.4.8-5,2.1-.6.4-1.4.8-2.2,1-.9.2-1.7.2-2.2,0-.2,0-.4-.2-.7-.3-.7-.3-1.3-.6-1.9-.8-.8-.3-1.6-.5-2.4-.4-1.6,0-3.3,1.1-5.7,3.4-1.3,1.2-2.5,1.7-3.6,1.5-1.1-.2-2.2-1-3.3-2.5-1-1.5-2.1-2.3-3.3-2.2-1.2,0-2.3,1-3.3,2.2h0c-2.5,3.1-5.3,6-8.1,8.9-.3.4-.7.7-1,1.1-.2.2-.6.4-.9.6-.3.2-.6.2-.7.2-.2,0-.4-.2-.5-.6-.1-.4-.2-.9-.2-1.3,0-.7,0-1.3-.1-1.9-.1-1.9-.2-3.5-.2-4.8,0-1.7.2-2.9.6-3.8.5-.9,1.2-1.6,2.6-2.2,1.4-.6,3.2-1.1,5.9-1.7h0c17.3-4.3,34.6-6.4,52.3-6.5,19.2.2,38,2.2,56.5,7.9,1.6.7,2.7,1.5,3.4,2.6.7,1.1,1.1,2.4.9,4.2,0,1,0,1.9,0,2.9,0,0,0,.2,0,.2,0,1,0,2,0,3Z"/>
    <path class="cls-4" d="M142.5,116.5h0c0,.4,0,.9,0,1.4,0,0,0,.1,0,.2,0,.5,0,1.1,0,1.6-.1,1-.4,2-1,2.7-.9,1-2.2,1.4-3.6,1.3-1.4-.2-3-.9-4.3-2.2h0c-.4-.4-.8-.7-1.2-1.1,0,0-.2-.2-.3-.2-.5-.4-1-.8-1.4-1.3-1.6-1.8-3.4-2.9-5.3-3.3-1.9-.4-4-.2-6.2.5-1.1.4-2.6.4-4,.3-1.4-.2-2.8-.6-3.6-1.3-1.5-1.2-3.1-1.7-4.7-1.6-1.6,0-3.3.7-4.8,1.7h0c-2.2,1.5-5.2,2.2-8,2.5-2.7.3-5.1.2-6,.1-3.4-.5-5.9-.9-8.4-2.5-2.5-1.6-5.2-4.3-9.1-9.5h0s0,0,0,0c-1.3-1.4-2.8-2.1-4.5-2-1.7,0-3.4.8-5,2.1-.6.4-1.4.8-2.2,1-.9.2-1.7.2-2.2,0-.2,0-.4-.2-.7-.3-.7-.3-1.3-.6-1.9-.8-.8-.3-1.6-.5-2.4-.4-1.6,0-3.3,1.1-5.7,3.4-1.3,1.2-2.5,1.7-3.6,1.5-1.1-.2-2.2-1-3.3-2.5-1-1.5-2.1-2.3-3.3-2.2-1.2,0-2.3,1-3.3,2.2h0c-2.5,3.1-5.3,6-8.1,8.9-.3.4-.7.7-1,1.1-.2.2-.6.4-.9.6-.3.2-.6.2-.7.2-.2,0-.4-.2-.5-.6-.1-.4-.2-.9-.2-1.3,0-.7,0-1.3-.1-1.9-.1-1.9-.2-3.5-.2-4.8,0-1.7.2-2.9.6-3.8.5-.9,1.2-1.6,2.6-2.2,1.4-.6,3.2-1.1,5.9-1.7h0c17.3-4.3,34.6-6.4,52.3-6.5,19.2.2,38,2.2,56.5,7.9,1.6.7,2.7,1.5,3.4,2.6.7,1.1,1.1,2.4.9,4.2,0,1,0,1.9,0,2.9,0,0,0,.2,0,.2,0,1,0,2,0,3Z"/>
    <path class="cls-2" d="M142.5,116.5h0c0,.4,0,.9,0,1.4,0,0,0,.1,0,.2,0,.5,0,1.1,0,1.6-.1,1-.4,2-1,2.7-.9,1-2.2,1.4-3.6,1.3-1.4-.2-3-.9-4.3-2.2h0c-.4-.4-.8-.7-1.2-1.1,0,0-.2-.2-.3-.2-.5-.4-1-.8-1.4-1.3-1.6-1.8-3.4-2.9-5.3-3.3-1.9-.4-4-.2-6.2.5-1.1.4-2.6.4-4,.3-1.4-.2-2.8-.6-3.6-1.3-1.5-1.2-3.1-1.7-4.7-1.6-1.6,0-3.3.7-4.8,1.7h0c-2.2,1.5-5.2,2.2-8,2.5-2.7.3-5.1.2-6,.1-3.4-.5-5.9-.9-8.4-2.5-2.5-1.6-5.2-4.3-9.1-9.5h0s0,0,0,0c-1.3-1.4-2.8-2.1-4.5-2-1.7,0-3.4.8-5,2.1-.6.4-1.4.8-2.2,1-.9.2-1.7.2-2.2,0-.2,0-.4-.2-.7-.3-.7-.3-1.3-.6-1.9-.8-.8-.3-1.6-.5-2.4-.4-1.6,0-3.3,1.1-5.7,3.4-1.3,1.2-2.5,1.7-3.6,1.5-1.1-.2-2.2-1-3.3-2.5-1-1.5-2.1-2.3-3.3-2.2-1.2,0-2.3,1-3.3,2.2h0c-2.5,3.1-5.3,6-8.1,8.9-.3.4-.7.7-1,1.1-.2.2-.6.4-.9.6-.3.2-.6.2-.7.2-.2,0-.4-.2-.5-.6-.1-.4-.2-.9-.2-1.3,0-.7,0-1.3-.1-1.9-.1-1.9-.2-3.5-.2-4.8,0-1.7.2-2.9.6-3.8.5-.9,1.2-1.6,2.6-2.2,1.4-.6,3.2-1.1,5.9-1.7h0c17.3-4.3,34.6-6.4,52.3-6.5,19.2.2,38,2.2,56.5,7.9,1.6.7,2.7,1.5,3.4,2.6.7,1.1,1.1,2.4.9,4.2,0,1,0,1.9,0,2.9,0,0,0,.2,0,.2,0,1,0,2,0,3Z"/>
    <path class="cls-7" d="M9.3,130.9H2.6c-1.3,0-2.5-1.1-2.5-2.5v-21.6c0-1.3,1.1-2.5,2.5-2.5h6.7c1.3,0,2.5,1.1,2.5,2.5v21.6c0,1.3-1.1,2.5-2.5,2.5Z"/>
    <path class="cls-6" d="M9.3,130.9H2.6c-1.3,0-2.5-1.1-2.5-2.5v-21.6c0-1.3,1.1-2.5,2.5-2.5h6.7c1.3,0,2.5,1.1,2.5,2.5v21.6c0,1.3-1.1,2.5-2.5,2.5Z"/>
    <path class="cls-7" d="M160.1,131h-5.1c-1.3,0-2.5-1.1-2.5-2.5v-21.6c0-1.3,1.1-2.5,2.5-2.5h5.1c1.3,0,2.5,1.1,2.5,2.5v21.6c0,1.3-1.1,2.5-2.5,2.5Z"/>
    <path class="cls-6" d="M160.1,131h-5.1c-1.3,0-2.5-1.1-2.5-2.5v-21.6c0-1.3,1.1-2.5,2.5-2.5h5.1c1.3,0,2.5,1.1,2.5,2.5v21.6c0,1.3-1.1,2.5-2.5,2.5Z"/>
    <path class="cls-5" d="M81.6,86.3c20,0,39.3,3.3,58.7,8.3,7.9,2,11.3,6.8,11.4,15.2,0,5.3-.2,10.5,0,15.8.4,8.4-3.3,14.5-9.6,19.5-6.6,5.1-14.1,7.9-22.3,8.7-4.7.4-9.5.4-14.2,0-9-.8-15.6-5.7-19.5-13.7-3.1-6.1-6.1-6.5-9.5,0-4.7,9.3-12.6,13.6-23,13.9-9.8.3-19.3-.8-28-5.9-3-1.8-5.9-4-8.5-6.5-4.1-3.9-6.2-8.9-6.1-14.7,0-5.9,0-11.8,0-17.7,0-7.9,3.6-12.6,11.2-14.8,19.4-5.6,39.1-8.3,59.2-8.3ZM81.5,89.1c-20,0-39.5,2.6-58.7,8.2-6.3,1.8-9,5.3-9.1,11.9,0,5.1.2,10.1,0,15.2-.6,9.1,3.6,15.5,11,20.2,9.9,6.5,20.9,7.7,32.4,6.5,7.5-.8,12.9-4.7,16.6-11.1,1.5-2.6,2.9-5.3,4.6-7.9,2.2-3.3,4.7-3.3,6.9,0,1.7,2.7,3.1,5.5,4.7,8.2,3.6,6.2,8.9,10.1,16.1,10.8,3.9.4,8,.6,11.9.3,9.3-.6,17.9-3.6,25-10,4.3-3.9,6.7-8.7,6.7-14.8,0-5.3,0-10.8,0-16.1,0-8-2.4-11.3-10.1-13.4-18.8-5.4-38.1-8-57.7-8Z"/>
  </g>
  <g id="Layer_3" data-name="Layer 3">
    <path class="cls-7" d="M141,72.6c-44.2-20.6-79.7-17.1-118.8-.1-.3.1-.8-.1-.8-.6.1-3.3,1.9-5.4,4-7.5,1.1-1.1,2-2.7,2.4-4.3,1.1-4.8,3.6-8.3,8-10.9,3.1-1.8,6.3-4.4,7.7-7.5,4.5-9.3,12.4-12.4,21.8-13.3,1.9-.2,3.8-.6,5.5-1.3,8.2-3.5,16.3-3.4,24.5.2,1.5.6,3.2.9,4.8.8,8.4-.4,15.3,2.2,20.3,9.2.7,1,1.7,1.9,2.9,2.4,8.2,3.3,12,9.8,13.5,18.1.2,1.1.5,2.2,1.1,3,3.1,3,3.3,7,3.8,11.2,0,.5-.4.8-.8.6Z"/>
    <path class="cls-6" d="M141,72.6c-44.2-20.6-79.7-17.1-118.8-.1-.3.1-.8-.1-.8-.6.1-3.3,1.9-5.4,4-7.5,1.1-1.1,2-2.7,2.4-4.3,1.1-4.8,3.6-8.3,8-10.9,3.1-1.8,6.3-4.4,7.7-7.5,4.5-9.3,12.4-12.4,21.8-13.3,1.9-.2,3.8-.6,5.5-1.3,8.2-3.5,16.3-3.4,24.5.2,1.5.6,3.2.9,4.8.8,8.4-.4,15.3,2.2,20.3,9.2.7,1,1.7,1.9,2.9,2.4,8.2,3.3,12,9.8,13.5,18.1.2,1.1.5,2.2,1.1,3,3.1,3,3.3,7,3.8,11.2,0,.5-.4.8-.8.6Z"/>
    <path class="cls-7" d="M141,72.6c-44.2-20.6-79.7-17.1-118.8-.1-.3.1-.8-.1-.8-.6.1-3.3,1.9-5.4,4-7.5,1.1-1.1,2-2.7,2.4-4.3,1.1-4.8,3.6-8.3,8-10.9,3.1-1.8,6.3-4.4,7.7-7.5,4.5-9.3,12.4-12.4,21.8-13.3,1.9-.2,3.8-.6,5.5-1.3,8.2-3.5,16.3-3.4,24.5.2,1.5.6,3.2.9,4.8.8,8.4-.4,15.3,2.2,20.3,9.2.7,1,1.7,1.9,2.9,2.4,8.2,3.3,12,9.8,13.5,18.1.2,1.1.5,2.2,1.1,3,3.1,3,3.3,7,3.8,11.2,0,.5-.4.8-.8.6Z"/>
    <path class="cls-6" d="M141,72.6c-44.2-20.6-79.7-17.1-118.8-.1-.3.1-.8-.1-.8-.6.1-3.3,1.9-5.4,4-7.5,1.1-1.1,2-2.7,2.4-4.3,1.1-4.8,3.6-8.3,8-10.9,3.1-1.8,6.3-4.4,7.7-7.5,4.5-9.3,12.4-12.4,21.8-13.3,1.9-.2,3.8-.6,5.5-1.3,8.2-3.5,16.3-3.4,24.5.2,1.5.6,3.2.9,4.8.8,8.4-.4,15.3,2.2,20.3,9.2.7,1,1.7,1.9,2.9,2.4,8.2,3.3,12,9.8,13.5,18.1.2,1.1.5,2.2,1.1,3,3.1,3,3.3,7,3.8,11.2,0,.5-.4.8-.8.6Z"/>
    <path class="cls-4" d="M141,72.6c-44.2-20.6-79.7-17.1-118.8-.1-.3.1-.8-.1-.8-.6.1-3.3,1.9-5.4,4-7.5,1.1-1.1,2-2.7,2.4-4.3,1.1-4.8,3.6-8.3,8-10.9,3.1-1.8,6.3-4.4,7.7-7.5,4.5-9.3,12.4-12.4,21.8-13.3,1.9-.2,3.8-.6,5.5-1.3,8.2-3.5,16.3-3.4,24.5.2,1.5.6,3.2.9,4.8.8,8.4-.4,15.3,2.2,20.3,9.2.7,1,1.7,1.9,2.9,2.4,8.2,3.3,12,9.8,13.5,18.1.2,1.1.5,2.2,1.1,3,3.1,3,3.3,7,3.8,11.2,0,.5-.4.8-.8.6Z"/>
    <path class="cls-2" d="M141,72.6c-44.2-20.6-79.7-17.1-118.8-.1-.3.1-.8-.1-.8-.6.1-3.3,1.9-5.4,4-7.5,1.1-1.1,2-2.7,2.4-4.3,1.1-4.8,3.6-8.3,8-10.9,3.1-1.8,6.3-4.4,7.7-7.5,4.5-9.3,12.4-12.4,21.8-13.3,1.9-.2,3.8-.6,5.5-1.3,8.2-3.5,16.3-3.4,24.5.2,1.5.6,3.2.9,4.8.8,8.4-.4,15.3,2.2,20.3,9.2.7,1,1.7,1.9,2.9,2.4,8.2,3.3,12,9.8,13.5,18.1.2,1.1.5,2.2,1.1,3,3.1,3,3.3,7,3.8,11.2,0,.5-.4.8-.8.6Z"/>
  </g>
</svg>